inDegrees=yes
name=ik_data_2024_11_07_17_55
DataType=double
version=3
OpenSimVersion=4.5.1
endheader
time	pelvis_tilt	pelvis_list	pelvis_rotation	pelvis_tx	pelvis_ty	pelvis_tz	hip_flexion_r	hip_adduction_r	hip_rotation_r	knee_angle_r	knee_angle_r_beta	ankle_angle_r	subtalar_angle_r	mtp_angle_r	hip_flexion_l	hip_adduction_l	hip_rotation_l	knee_angle_l	knee_angle_l_beta	ankle_angle_l	subtalar_angle_l	mtp_angle_l	lumbar_extension	lumbar_bending	lumbar_rotation	arm_flex_r	arm_add_r	arm_rot_r	elbow_flex_r	pro_sup_r	wrist_flex_r	wrist_dev_r	arm_flex_l	arm_add_l	arm_rot_l	elbow_flex_l	pro_sup_l	wrist_flex_l	wrist_dev_l
22.59931	-25.80300857476394	-13.87105315585865	170.5863540954848	0	0.9399999999999999	0	-12.09236764133743	29.99011614784028	19.40757393858618	0.03398319563743742	0.0005931186542226561	-4.891983619423749	0	0	-23.97874658528701	16.53353140711242	9.002675220827106	0.5185854108337934	0.009051022871857167	-4.891983619423749	0	0	0	0	0	0	-6.614471332334238	0	56.06170757639494	42.33619518291786	0	0	0	-6.614471332334238	0	56.06170757639494	42.33619518291786	0	0
22.66481	-26.30751078301681	-13.96036937117714	170.578044957361	0	0.9399999999999999	0	-12.60192776946295	29.99020428254029	20.05186003990993	0.03257252424822776	0.0005684977938172652	-4.892380712510795	0	0	-24.51350536744165	16.64560126119325	9.19023564643965	0.5089237700830462	0.008882395429611773	-4.892380712510795	0	0	0	0	0	0	-6.61796211585902	0	56.07805444870526	42.34216444254618	0	0	0	-6.61796211585902	0	56.07805444870526	42.34216444254618	0	0
22.6677	-26.38115562020944	-13.77825895246412	170.4328986587999	0	0.9399999999999999	0	-12.64657187894186	29.99008377215794	20.8943598489686	0.02953041585893022	0.0005154029862214817	-4.892905341108744	0	0	-24.54371138668586	16.54747494384492	8.988124450650272	0.5193683978981835	0.009064688574131298	-4.892905341108744	0	0	0	0	0	0	-6.622618088957597	0	56.09981384746017	42.35007877302206	0	0	0	-6.622618088957597	0	56.09981384746017	42.35007877302206	0	0
22.72253	-26.49385011612886	-13.58891680354493	171.2268279109334	0	0.9399999999999999	0	-11.64578675631305	29.98993751531276	20.08842168952573	0.02599077274184196	0.0004536245594827364	-4.89349895205532	0	0	-24.8800024573416	16.04816143915854	9.688867717870169	0.5234232041848951	0.009135458294364981	-4.89349895205532	0	0	0	0	0	0	-6.627973084206777	0	56.12474294714781	42.35908435805015	0	0	0	-6.627973084206777	0	56.12474294714781	42.35908435805015	0	0
22.78279	-26.4299082556827	-12.66302291666272	172.2917954712138	0	0.9399999999999999	0	-9.030481342309495	29.98915843644111	17.70414097242472	0.02129258158090492	0.0003716256548362902	-4.895195965191293	0	0	-25.1035103498342	14.76427706084369	10.27322550934458	0.52180793809763	0.009107266582846401	-4.895195965191293	0	0	0	0	0	0	-6.650214877432893	0	56.21705006240673	42.38760354341849	0	0	0	-6.650214877432893	0	56.21705006240673	42.38760354341849	0	0
22.83361	-26.41814106827629	-11.64546804860761	172.8041790194585	0	0.9399999999999999	0	-7.162028371685459	29.98820780863463	15.98247271493481	0.01833059250412845	0.0003199291930384336	-4.896532301071698	0	0	-25.23488875892039	13.63316127824411	10.30861160507138	0.5242572522742092	0.00915001517964348	-4.896532301071698	0	0	0	0	0	0	-6.667822645710665	0	56.29019793700125	42.4101526623429	0	0	0	-6.667822645710665	0	56.29019793700125	42.4101526623429	0	0
22.84809	-26.30587964817989	-10.4670057914244	173.5589792152747	0	0.9399999999999999	0	-5.131955313700159	29.98693095304338	13.69952945668164	0.01600182021521784	0.0002792844490677389	-4.897232845237577	0	0	-25.30053530524444	12.24942849608403	10.46627443497212	0.5259721350320327	0.00917994553005318	-4.897232845237577	0	0	0	0	0	0	-6.674284453897898	0	56.3201553788282	42.42088109277934	0	0	0	-6.674284453897898	0	56.3201553788282	42.42088109277934	0	0
22.89982	-26.01644209487955	-9.117435468583267	174.1595600349784	0	0.9399999999999999	0	-3.3724463041745	29.98516362427078	11.53755450799811	0.01435520425386997	0.000250545579026327	-4.897915035595925	0	0	-25.15419295146216	10.77741839701779	10.38476795319576	0.5070683663299376	0.008850012525166167	-4.897915035595925	0	0	0	0	0	0	-6.680606774316978	0	56.34944519992869	42.43135149620069	0	0	0	-6.680606774316978	0	56.34944519992869	42.43135149620069	0	0
22.96512	-25.68280360985241	-7.835162291937485	174.5158920474748	0	0.9399999999999999	0	-2.040215752642669	29.98293464438574	9.591924157534693	0.01323605796829511	0.0002310127915315808	-4.899251818170375	0	0	-24.89130492661408	9.455704543112644	10.09871836026946	0.5247343071493952	0.009158341357928167	-4.899251818170375	0	0	0	0	0	0	-6.698644778782222	0	56.42381962985272	42.4540642112111	0	0	0	-6.698644778782222	0	56.42381962985272	42.4540642112111	0	0
23.06594	-25.45902873158022	-6.356201500865347	175.0431084351934	0	0.9399999999999999	0	-0.5542766992167598	29.97952015633771	7.356031374272514	0.01223341325988194	0.0002135133401420725	-4.899902704975457	0	0	-24.78459980209367	7.89289983965314	9.924010651585903	0.5189285314679578	0.009057011456654867	-4.899902704975457	0	0	0	0	0	0	-6.704781490749617	0	56.45215284116806	42.46412331766165	0	0	0	-6.704781490749617	0	56.45215284116806	42.46412331766165	0	0
23.06878	-24.96843807107285	-4.882995257797494	175.1084153280364	0	0.9399999999999999	0	0.1715532006264429	29.97428311291948	5.633016212382238	0.01163741840847667	0.0002031112676601163	-4.9011483276052	0	0	-24.35013429435623	6.514761385105003	9.305344599616465	0.5152186286442512	0.008992261437452151	-4.9011483276052	0	0	0	0	0	0	-6.722250690168212	0	56.52310376093472	42.48544563558468	0	0	0	-6.722250690168212	0	56.52310376093472	42.48544563558468	0	0
23.1386	-24.66549978913461	-3.239703085365157	174.9975939031707	0	0.9399999999999999	0	0.09089905391450395	29.96382747476731	4.034486927331179	0.01118435924887798	0.0001952038936188006	-4.902346272137396	0	0	-24.11078418066133	5.048785517912671	8.492700454676054	0.5308697217756451	0.009265424544131245	-4.902346272137396	0	0	0	0	0	0	-6.739095962334099	0	56.59134289444992	42.50593094354616	0	0	0	-6.739095962334099	0	56.59134289444992	42.50593094354616	0	0
23.14728	-24.03891615336113	-1.564783401798713	175.1538953116302	0	0.9399999999999999	0	0.3467702964314637	29.93983278783061	2.380101160605967	0.01065151139739279	0.0001859039441982063	-4.903517577187796	0	0	-23.5938436806736	3.42393953754777	7.916999256458153	0.5090927299347028	0.00888534433532686	-4.903517577187796	0	0	0	0	0	0	-6.756494664814793	0	56.66071103228039	42.52627394217104	0	0	0	-6.756494664814793	0	56.66071103228039	42.52627394217104	0	0
23.20009	-23.41242396763714	-0.1394088826579647	174.7223030644315	0	0.9399999999999999	0	-0.3671415663696246	29.8488462602768	1.492820526374524	0.01055048740825779	0.0001841407429643016	-4.904393604369282	0	0	-23.01731470978237	2.240800249438961	6.932702189535827	0.5524949497134997	0.00964285597314107	-4.904393604369282	0	0	0	0	0	0	-6.770568207271474	0	56.71554871748089	42.54182430761161	0	0	0	-6.770568207271474	0	56.71554871748089	42.54182430761161	0	0
23.20746	-22.8423443855429	0.6925072893889723	174.5096243625003	0	0.9399999999999999	0	-1.328716038055894	28.68239447126064	0.5189945273617869	0.01048784776273956	0.0001830474749077263	-4.905278962100708	0	0	-22.53227658513076	1.520167921809733	6.404157220323115	0.5063438498529981	0.008837367327158622	-4.905278962100708	0	0	0	0	0	0	-6.784496187290225	0	56.77011510114989	42.55743972783303	0	0	0	-6.784496187290225	0	56.77011510114989	42.55743972783303	0	0
23.2664	-22.35177640765989	0.7495210359868834	174.1495990878935	0	0.9399999999999999	0	-2.502609581598376	26.2749393037948	-0.1972310020357833	0.0106148339255098	0.0001852638015525406	-4.906234705146846	0	0	-22.04336948036839	1.542539591582726	6.03294208620187	0.509487010939605	0.008892225837040477	-4.906234705146846	0	0	0	0	0	0	-6.799431304680814	0	56.82884105966007	42.57429693613754	0	0	0	-6.799431304680814	0	56.82884105966007	42.57429693613754	0	0
23.31631	-21.82906297659636	0.6547613059199048	173.482792635181	0	0.9399999999999999	0	-3.810264858114984	23.70361130885201	-0.382339246977195	0.01065614939835136	0.000185984892585644	-4.907194570403731	0	0	-21.50699166063515	1.820242691375189	5.437939762762378	0.4970482236798381	0.00867512804440242	-4.907194570403731	0	0	0	0	0	0	-6.814414418958397	0	56.8878493507145	42.59124547914209	0	0	0	-6.814414418958397	0	56.8878493507145	42.59124547914209	0	0
23.3831	-21.14186366336332	0.5877936066603511	172.7981828876315	0	0.9399999999999999	0	-4.687525254563401	21.2725572548348	-0.4173533957606754	0.01067625976333144	0.0001863358846683241	-4.90816448246175	0	0	-20.79581461765314	2.0503576544389	4.798676470403986	0.4938960371695893	0.008620112011161628	-4.90816448246175	0	0	0	0	0	0	-6.829886827649387	0	56.94848143397422	42.6085004433472	0	0	0	-6.829886827649387	0	56.94848143397422	42.6085004433472	0	0
23.38715	-20.38119688435121	0.4369852012845735	171.7266011343605	0	0.9399999999999999	0	-5.382310250699126	18.90679727060264	0.03133991297401179	0.01070304262763696	0.0001868033338335704	-4.909200362563145	0	0	-19.97803377948008	2.467089042188524	3.814575674342643	0.4981803294018622	0.008694887016732409	-4.909200362563145	0	0	0	0	0	0	-6.846557260646578	0	57.01374832881264	42.62700667405549	0	0	0	-6.846557260646578	0	57.01374832881264	42.62700667405549	0	0
23.44517	-19.58469999249719	0.4248890373934049	171.2711329770969	0	0.9399999999999999	0	-5.316235264247726	16.62219903374699	-0.1120909233164333	0.01046912571887826	0.000182720713599644	-4.91015263276582	0	0	-19.16968451526305	2.516811204476872	3.350485277397233	0.4976193076513095	0.008685095340009961	-4.91015263276582	0	0	0	0	0	0	-6.861988553381575	0	57.0741299103048	42.64407889392108	0	0	0	-6.861988553381575	0	57.0741299103048	42.64407889392108	0	0
23.5005	-18.80893313863945	0.4207682888677997	171.305027541098	0	0.9399999999999999	0	-5.5780978194451	14.91922874227932	-0.6995074569199843	0.01104333668299633	0.0001927425855245552	-4.910995787418626	0	0	-18.40474315474627	2.405427064473795	3.351720408597364	0.5018565311319679	0.008759048840890266	-4.910995787418626	0	0	0	0	0	0	-6.875390448417845	0	57.12700357089256	42.6591546233043	0	0	0	-6.875390448417845	0	57.12700357089256	42.6591546233043	0	0
23.56679	-18.13241645873484	0.4821931043978103	171.9855222497114	0	0.9399999999999999	0	-6.684778810430028	13.39265848043082	-1.859106204189904	0.01200616470721542	0.0002095471046776501	-4.911842742027638	0	0	-17.76058873096834	2.038978592597737	3.953321423113654	0.505857605811716	0.008828880767670046	-4.911842742027638	0	0	0	0	0	0	-6.888504454402977	0	57.17912419800628	42.67418549358232	0	0	0	-6.888504454402977	0	57.17912419800628	42.67418549358232	0	0
23.56924	-17.27611256300475	0.4762722444010274	171.7821960551924	0	0.9399999999999999	0	-7.220172384331406	11.21465436713966	-2.112823755113643	0.0124922334739466	0.0002180306050482174	-4.912737615010009	0	0	-16.91831277389253	1.995878213603815	3.729923547959799	0.4978494499722277	0.008689112081258166	-4.912737615010009	0	0	0	0	0	0	-6.903088031888038	0	57.23623721421706	42.69029770435313	0	0	0	-6.903088031888038	0	57.23623721421706	42.69029770435313	0	0
23.61638	-16.53456654987807	0.4879189069402042	171.968039183845	0	0.9399999999999999	0	-7.690327806287935	9.194204019098324	-2.663276602954646	0.01342959622447724	0.0002343906713305273	-4.913677199841767	0	0	-16.17900513752475	1.820960270235282	3.885094280887142	0.5115003489679963	0.008927365214591516	-4.913677199841767	0	0	0	0	0	0	-6.917921483262614	0	57.29522176444612	42.70716886867199	0	0	0	-6.917921483262614	0	57.29522176444612	42.70716886867199	0	0
23.6834	-15.60041538478569	0.6507779736833441	173.3504438502062	0	0.9399999999999999	0	-7.881807375744795	7.918244721681873	-4.322544156800171	0.01476990012971556	0.0002577833874542742	-4.914797750400938	0	0	-15.29996644684496	1.176982501871067	5.148295429510525	0.5101205870427264	0.0089032838261019	-4.914797750400938	0	0	0	0	0	0	-6.936278415738286	0	57.36755214599865	42.72753262369785	0	0	0	-6.936278415738286	0	57.36755214599865	42.72753262369785	0	0
23.73446	-14.72481323483955	0.8093703671480507	174.6587532808176	0	0.9399999999999999	0	-7.949848902209278	6.546167069878148	-5.858796021535147	0.01607745215012771	0.0002806044753515702	-4.915859063358641	0	0	-14.46633418737028	0.5935962909560355	6.369360371181076	0.5057474920856748	0.008826958920598989	-4.915859063358641	0	0	0	0	0	0	-6.953623110261809	0	57.43609395414421	42.74685009709219	0	0	0	-6.953623110261809	0	57.43609395414421	42.74685009709219	0	0
